<?xml version="1.0" encoding="UTF-8" standalone="no"?>
<svg xmlns:rdf="http://www.w3.org/1999/02/22-rdf-syntax-ns#" style="enable-background:new 0 0 340.274 340.274" xmlns="http://www.w3.org/2000/svg" xml:space="preserve" height="340.27px" width="340.27px" version="1.1" y="0px" x="0px" xmlns:cc="http://creativecommons.org/ns#" xmlns:dc="http://purl.org/dc/elements/1.1/" viewBox="0 0 340.274 340.274"><path d="m170.13 5.1348a165 165 0 0 0 -165 165 165 165 0 0 0 165 165 165 165 0 0 0 165 -165 165 165 0 0 0 -165 -165zm-69.64 76.238a20.002 20.002 0 0 1 14.38 5.979l55.26 54.658 55.27-54.658a20.002 20.002 0 0 1 13.78 -5.973 20.002 20.002 0 0 1 14.35 34.411l-54.95 54.34 54.95 54.35a20.002 20.002 0 1 1 -28.13 28.44l-55.27-54.66-55.26 54.66a20.002 20.002 0 1 1 -28.128 -28.44l54.948-54.35-54.948-54.34a20.002 20.002 0 0 1 13.748 -34.417z" transform="scale(1)" fill="#006883"/></svg>
