<?xml version="1.0" encoding="UTF-8" standalone="no"?>
<svg xmlns:rdf="http://www.w3.org/1999/02/22-rdf-syntax-ns#" style="enable-background:new 0 0 340.274 340.274" xmlns="http://www.w3.org/2000/svg" xml:space="preserve" height="340.27px" width="340.27px" version="1.1" y="0px" x="0px" xmlns:cc="http://creativecommons.org/ns#" xmlns:dc="http://purl.org/dc/elements/1.1/" viewBox="0 0 340.274 340.274"><path d="m170.13 5.1348a165 165 0 0 0 -165 165 165 165 0 0 0 165 165 165 165 0 0 0 165 -165 165 165 0 0 0 -165 -165zm3.51 48.81a20.002 20.002 0 0 1 12.73 5.127l95.16 83.268a20.002 20.002 0 1 1 -26.34 30.1l-82.89-72.53-82.894 72.53a20.002 20.002 0 1 1 -26.34 -30.1l95.164-83.266a20.002 20.002 0 0 1 12.72 -5.125 20.002 20.002 0 0 1 1.4 0.002 20.002 20.002 0 0 1 0.16 0.014 20.002 20.002 0 0 1 1.13 -0.02zm-1.38 74.855a20.016 20.016 0 0 1 20.25 20.36l-0.4 134.99a20.016 20.016 0 1 1 -40.03 -0.11l0.4-135a20.016 20.016 0 0 1 19.78 -20.24z" transform="scale(1)" fill="#006883"/></svg>
